<?xml version="1.0"?><svg id="Ebene_2" data-name="Ebene 2" xmlns="http://www.w3.org/2000/svg" xmlns:xlink="http://www.w3.org/1999/xlink" viewBox="0 0 1094.39 206.7">
  <defs>
    
    <linearGradient id="Unbenannter_Verlauf_16" data-name="Unbenannter Verlauf 16" x1="0" y1="103.35" x2="1094.39" y2="103.35" gradientUnits="userSpaceOnUse">
      <stop offset="0" stop-color="#d962b7"></stop>
      <stop offset=".2" stop-color="#dd60a1"></stop>
      <stop offset=".63" stop-color="#e75c6a"></stop>
      <stop offset="1" stop-color="#f25835"></stop>
    </linearGradient>
  </defs>
  <g id="Ebene_1-2" data-name="Ebene 1">
    <path class="cls-1" d="M236.1,57.6l-66.3,147h-12.9l-38.4-74.7-38.4,74.7h-13.2L0,57.6h48l29.7,69.3,34.8-69.6h13.5l34.8,69.6,30.3-69.3h45ZM278.4,126.6c0-16.2,11.7-28.2,27.6-28.2,13.2,0,24.6,9.9,24.6,24,0,7.8-3.6,15-7.5,21.6h46.2c5.4-9.6,8.1-19.2,8.1-27.9,0-31.5-27.3-62.4-71.4-62.4s-74.4,31.8-74.4,73.5c0,44.4,35.7,75.9,81.9,75.9h53.7l12-44.1h-60.9c-26.1,0-39.9-14.7-39.9-32.4ZM394.5,115.5v87.6h46.2v-83.7c0-11.1,5.7-18,17.7-18h15.3v-44.1h-20.4c-39.6,0-58.8,23.7-58.8,58.2ZM533.1,138.3v-36.9h37.5v-44.1h-37.5v-29.1h-46.2v116.7c0,34.5,19.2,58.2,58.8,58.2h18l12-44.1h-22.2c-15.3,0-20.4-8.1-20.4-20.7ZM738.9,57.3h-54l-47.1,66V0h-46.2v203.1h46.2v-67.5l47.1,67.5h56.1l-54.3-75,52.2-70.8ZM837.89,139.5c0,15-7.8,22.5-20.4,22.5s-20.7-7.5-20.7-22.5V57.3h-46.2v82.2c0,41.7,26.7,67.2,66.9,67.2s66.6-25.5,66.6-67.2V57.3h-46.2v82.2ZM903.59,115.5v87.6h46.2v-83.7c0-11.1,5.7-18,17.7-18h15.3v-44.1h-20.4c-39.6,0-58.8,23.7-58.8,58.2ZM1064.99,90.3c-16.5-14.4-23.4-20.1-21-33h-48.6c-6.6,24.6,6.9,41.4,28.2,58.8,12.3,10.2,23.4,17.4,23.4,27.9,0,9.3-9,15-26.1,15h-28.8l12,44.1h16.8c42.9,0,73.5-20.4,73.5-59.4,0-23.7-11.1-37.5-29.4-53.4Z"></path>
  </g>
</svg>